<?xml version="1.0" encoding="UTF-8" standalone="no"?>
<!DOCTYPE svg PUBLIC "-//W3C//DTD SVG 1.1//EN"
 "http://www.w3.org/Graphics/SVG/1.1/DTD/svg11.dtd">
<!-- Generated by graphviz version 3.0.0 (20220226.1711)
 -->
<!-- Title: dependency&#45;cruiser output Pages: 1 -->
<svg width="281pt" height="256pt"
 viewBox="0.00 0.00 281.00 256.00" xmlns="http://www.w3.org/2000/svg" xmlns:xlink="http://www.w3.org/1999/xlink">
<g id="graph0" class="graph" transform="scale(1 1) rotate(0) translate(4 252)">
<title>dependency&#45;cruiser output</title>
<polygon fill="white" stroke="transparent" points="-4,4 -4,-252 277,-252 277,4 -4,4"/>
<g id="clust1" class="cluster">
<title>cluster_api</title>
<path fill="#ffffff" stroke="black" stroke-width="2" d="M20,-8C20,-8 253,-8 253,-8 259,-8 265,-14 265,-20 265,-20 265,-228 265,-228 265,-234 259,-240 253,-240 253,-240 20,-240 20,-240 14,-240 8,-234 8,-228 8,-228 8,-20 8,-20 8,-14 14,-8 20,-8"/>
<text text-anchor="middle" x="136.5" y="-228.8" font-family="Helvetica,sans-Serif" font-weight="bold" font-size="9.00">api</text>
</g>
<g id="clust2" class="cluster">
<title>cluster_api/routes</title>
<path fill="#ffffff" stroke="black" stroke-width="2" d="M105,-16C105,-16 175,-16 175,-16 181,-16 187,-22 187,-28 187,-28 187,-176 187,-176 187,-182 181,-188 175,-188 175,-188 105,-188 105,-188 99,-188 93,-182 93,-176 93,-176 93,-28 93,-28 93,-22 99,-16 105,-16"/>
<text text-anchor="middle" x="140" y="-176.8" font-family="Helvetica,sans-Serif" font-weight="bold" font-size="9.00">routes</text>
</g>
<!-- api/db.js -->
<g id="node1" class="node">
<title>api/db.js</title>
<g id="a_node1"><a xlink:href="api/db.js" xlink:title="db.js">
<path fill="#ffffcc" stroke="black" d="M251,-102C251,-102 209,-102 209,-102 206,-102 203,-99 203,-96 203,-96 203,-90 203,-90 203,-87 206,-84 209,-84 209,-84 251,-84 251,-84 254,-84 257,-87 257,-90 257,-90 257,-96 257,-96 257,-99 254,-102 251,-102"/>
<text text-anchor="start" x="220" y="-90.8" font-family="Helvetica,sans-Serif" font-size="9.00">db.js</text>
</a>
</g>
</g>
<!-- api/index.js -->
<g id="node2" class="node">
<title>api/index.js</title>
<g id="a_node2"><a xlink:href="api/index.js" xlink:title="index.js">
<path fill="#ffffcc" stroke="black" d="M67.5,-117C67.5,-117 25.5,-117 25.5,-117 22.5,-117 19.5,-114 19.5,-111 19.5,-111 19.5,-105 19.5,-105 19.5,-102 22.5,-99 25.5,-99 25.5,-99 67.5,-99 67.5,-99 70.5,-99 73.5,-102 73.5,-105 73.5,-105 73.5,-111 73.5,-111 73.5,-114 70.5,-117 67.5,-117"/>
<text text-anchor="start" x="30.5" y="-105.8" font-family="Helvetica,sans-Serif" font-size="9.00">index.js</text>
</a>
</g>
</g>
<!-- api/routes/Categories.js -->
<g id="node3" class="node">
<title>api/routes/Categories.js</title>
<g id="a_node3"><a xlink:href="api/routes/Categories.js" xlink:title="Categories.js">
<path fill="#ffffcc" stroke="black" d="M169.5,-162C169.5,-162 110.5,-162 110.5,-162 107.5,-162 104.5,-159 104.5,-156 104.5,-156 104.5,-150 104.5,-150 104.5,-147 107.5,-144 110.5,-144 110.5,-144 169.5,-144 169.5,-144 172.5,-144 175.5,-147 175.5,-150 175.5,-150 175.5,-156 175.5,-156 175.5,-159 172.5,-162 169.5,-162"/>
<text text-anchor="start" x="112.5" y="-150.8" font-family="Helvetica,sans-Serif" font-size="9.00">Categories.js</text>
</a>
</g>
</g>
<!-- api/index.js&#45;&gt;api/routes/Categories.js -->
<g id="edge1" class="edge">
<title>api/index.js&#45;&gt;api/routes/Categories.js</title>
<path fill="none" stroke="#000000" stroke-width="2" stroke-opacity="0.200000" d="M58.43,-117.19C66.67,-123.74 78.48,-132.35 90,-138 92.7,-139.33 95.55,-140.56 98.45,-141.71"/>
<polygon fill="#000000" fill-opacity="0.200000" stroke="#000000" stroke-width="2" stroke-opacity="0.200000" points="98.1,-143.82 104.46,-143.95 99.57,-139.89 98.1,-143.82"/>
</g>
<!-- api/routes/Currencies.js -->
<g id="node4" class="node">
<title>api/routes/Currencies.js</title>
<g id="a_node4"><a xlink:href="api/routes/Currencies.js" xlink:title="Currencies.js">
<path fill="#ffffcc" stroke="black" d="M169.5,-132C169.5,-132 110.5,-132 110.5,-132 107.5,-132 104.5,-129 104.5,-126 104.5,-126 104.5,-120 104.5,-120 104.5,-117 107.5,-114 110.5,-114 110.5,-114 169.5,-114 169.5,-114 172.5,-114 175.5,-117 175.5,-120 175.5,-120 175.5,-126 175.5,-126 175.5,-129 172.5,-132 169.5,-132"/>
<text text-anchor="start" x="112.5" y="-120.8" font-family="Helvetica,sans-Serif" font-size="9.00">Currencies.js</text>
</a>
</g>
</g>
<!-- api/index.js&#45;&gt;api/routes/Currencies.js -->
<g id="edge2" class="edge">
<title>api/index.js&#45;&gt;api/routes/Currencies.js</title>
<path fill="none" stroke="#000000" stroke-width="2" stroke-opacity="0.200000" d="M73.97,-112.34C81.54,-113.58 89.97,-114.96 98.19,-116.31"/>
<polygon fill="#000000" fill-opacity="0.200000" stroke="#000000" stroke-width="2" stroke-opacity="0.200000" points="98.15,-118.43 104.41,-117.33 98.83,-114.29 98.15,-118.43"/>
</g>
<!-- api/routes/Priorities.js -->
<g id="node5" class="node">
<title>api/routes/Priorities.js</title>
<g id="a_node5"><a xlink:href="api/routes/Priorities.js" xlink:title="Priorities.js">
<path fill="#ffffcc" stroke="black" d="M165,-102C165,-102 115,-102 115,-102 112,-102 109,-99 109,-96 109,-96 109,-90 109,-90 109,-87 112,-84 115,-84 115,-84 165,-84 165,-84 168,-84 171,-87 171,-90 171,-90 171,-96 171,-96 171,-99 168,-102 165,-102"/>
<text text-anchor="start" x="117" y="-90.8" font-family="Helvetica,sans-Serif" font-size="9.00">Priorities.js</text>
</a>
</g>
</g>
<!-- api/index.js&#45;&gt;api/routes/Priorities.js -->
<g id="edge3" class="edge">
<title>api/index.js&#45;&gt;api/routes/Priorities.js</title>
<path fill="none" stroke="#000000" stroke-width="2" stroke-opacity="0.200000" d="M73.97,-103.66C82.88,-102.2 93,-100.54 102.55,-98.98"/>
<polygon fill="#000000" fill-opacity="0.200000" stroke="#000000" stroke-width="2" stroke-opacity="0.200000" points="103.15,-101.01 108.73,-97.96 102.47,-96.86 103.15,-101.01"/>
</g>
<!-- api/routes/Transactions.js -->
<g id="node6" class="node">
<title>api/routes/Transactions.js</title>
<g id="a_node6"><a xlink:href="api/routes/Transactions.js" xlink:title="Transactions.js">
<path fill="#ffffcc" stroke="black" d="M173,-72C173,-72 107,-72 107,-72 104,-72 101,-69 101,-66 101,-66 101,-60 101,-60 101,-57 104,-54 107,-54 107,-54 173,-54 173,-54 176,-54 179,-57 179,-60 179,-60 179,-66 179,-66 179,-69 176,-72 173,-72"/>
<text text-anchor="start" x="109" y="-60.8" font-family="Helvetica,sans-Serif" font-size="9.00">Transactions.js</text>
</a>
</g>
</g>
<!-- api/index.js&#45;&gt;api/routes/Transactions.js -->
<g id="edge4" class="edge">
<title>api/index.js&#45;&gt;api/routes/Transactions.js</title>
<path fill="none" stroke="#000000" stroke-width="2" stroke-opacity="0.200000" d="M58.43,-98.81C66.67,-92.26 78.48,-83.65 90,-78 92.7,-76.67 95.55,-75.44 98.45,-74.29"/>
<polygon fill="#000000" fill-opacity="0.200000" stroke="#000000" stroke-width="2" stroke-opacity="0.200000" points="99.57,-76.11 104.46,-72.05 98.1,-72.18 99.57,-76.11"/>
</g>
<!-- api/routes/Types.js -->
<g id="node7" class="node">
<title>api/routes/Types.js</title>
<g id="a_node7"><a xlink:href="api/routes/Types.js" xlink:title="Types.js">
<path fill="#ffffcc" stroke="black" d="M161,-42C161,-42 119,-42 119,-42 116,-42 113,-39 113,-36 113,-36 113,-30 113,-30 113,-27 116,-24 119,-24 119,-24 161,-24 161,-24 164,-24 167,-27 167,-30 167,-30 167,-36 167,-36 167,-39 164,-42 161,-42"/>
<text text-anchor="start" x="123" y="-30.8" font-family="Helvetica,sans-Serif" font-size="9.00">Types.js</text>
</a>
</g>
</g>
<!-- api/index.js&#45;&gt;api/routes/Types.js -->
<g id="edge5" class="edge">
<title>api/index.js&#45;&gt;api/routes/Types.js</title>
<path fill="none" stroke="#000000" stroke-width="2" stroke-opacity="0.200000" d="M56.44,-98.99C62.67,-92.41 70.92,-83.1 77,-74 84.18,-63.26 80.14,-56.34 90,-48 94.84,-43.91 100.78,-40.93 106.84,-38.76"/>
<polygon fill="#000000" fill-opacity="0.200000" stroke="#000000" stroke-width="2" stroke-opacity="0.200000" points="107.8,-40.66 112.89,-36.86 106.54,-36.66 107.8,-40.66"/>
</g>
<!-- api/swagger&#45;output.json -->
<g id="node8" class="node">
<title>api/swagger&#45;output.json</title>
<g id="a_node8"><a xlink:href="api/swagger-output.json" xlink:title="swagger&#45;output.json">
<path fill="#ffee44" stroke="black" d="M184,-214C184,-214 96,-214 96,-214 93,-214 90,-211 90,-208 90,-208 90,-202 90,-202 90,-199 93,-196 96,-196 96,-196 184,-196 184,-196 187,-196 190,-199 190,-202 190,-202 190,-208 190,-208 190,-211 187,-214 184,-214"/>
<text text-anchor="start" x="98" y="-202.8" font-family="Helvetica,sans-Serif" font-size="9.00">swagger&#45;output.json</text>
</a>
</g>
</g>
<!-- api/index.js&#45;&gt;api/swagger&#45;output.json -->
<g id="edge6" class="edge">
<title>api/index.js&#45;&gt;api/swagger&#45;output.json</title>
<path fill="none" stroke="#000000" stroke-width="2" stroke-opacity="0.200000" d="M49.57,-117C53.96,-134.06 65.86,-171.16 90,-191 90.73,-191.6 91.48,-192.17 92.25,-192.72"/>
<polygon fill="#000000" fill-opacity="0.200000" stroke="#000000" stroke-width="2" stroke-opacity="0.200000" points="91.39,-194.65 97.61,-195.98 93.58,-191.07 91.39,-194.65"/>
</g>
<!-- api/routes/Categories.js&#45;&gt;api/db.js -->
<g id="edge7" class="edge">
<title>api/routes/Categories.js&#45;&gt;api/db.js</title>
<path fill="none" stroke="#000000" stroke-width="2" stroke-opacity="0.200000" d="M175.58,-145.11C180.63,-143.2 185.6,-140.86 190,-138 202.14,-130.1 212.67,-117.38 219.72,-107.47"/>
<polygon fill="#000000" fill-opacity="0.200000" stroke="#000000" stroke-width="2" stroke-opacity="0.200000" points="221.6,-108.44 223.26,-102.3 218.13,-106.06 221.6,-108.44"/>
</g>
<!-- api/routes/Currencies.js&#45;&gt;api/db.js -->
<g id="edge8" class="edge">
<title>api/routes/Currencies.js&#45;&gt;api/db.js</title>
<path fill="none" stroke="#000000" stroke-width="2" stroke-opacity="0.200000" d="M171.69,-113.97C177.78,-112.07 184.11,-110.03 190,-108 193.34,-106.85 196.82,-105.59 200.26,-104.31"/>
<polygon fill="#000000" fill-opacity="0.200000" stroke="#000000" stroke-width="2" stroke-opacity="0.200000" points="201.13,-106.23 206,-102.15 199.65,-102.3 201.13,-106.23"/>
</g>
<!-- api/routes/Priorities.js&#45;&gt;api/db.js -->
<g id="edge9" class="edge">
<title>api/routes/Priorities.js&#45;&gt;api/db.js</title>
<path fill="none" stroke="#000000" stroke-width="2" stroke-opacity="0.200000" d="M171.28,-93C179.45,-93 188.31,-93 196.58,-93"/>
<polygon fill="#000000" fill-opacity="0.200000" stroke="#000000" stroke-width="2" stroke-opacity="0.200000" points="196.77,-95.1 202.77,-93 196.77,-90.9 196.77,-95.1"/>
</g>
<!-- api/routes/Transactions.js&#45;&gt;api/db.js -->
<g id="edge10" class="edge">
<title>api/routes/Transactions.js&#45;&gt;api/db.js</title>
<path fill="none" stroke="#000000" stroke-width="2" stroke-opacity="0.200000" d="M171.69,-72.03C177.78,-73.93 184.11,-75.97 190,-78 193.34,-79.15 196.82,-80.41 200.26,-81.69"/>
<polygon fill="#000000" fill-opacity="0.200000" stroke="#000000" stroke-width="2" stroke-opacity="0.200000" points="199.65,-83.7 206,-83.85 201.13,-79.77 199.65,-83.7"/>
</g>
<!-- api/routes/Types.js&#45;&gt;api/db.js -->
<g id="edge11" class="edge">
<title>api/routes/Types.js&#45;&gt;api/db.js</title>
<path fill="none" stroke="#000000" stroke-width="2" stroke-opacity="0.200000" d="M167.12,-38.08C174.88,-40.34 183.14,-43.54 190,-48 202.14,-55.9 212.67,-68.62 219.72,-78.53"/>
<polygon fill="#000000" fill-opacity="0.200000" stroke="#000000" stroke-width="2" stroke-opacity="0.200000" points="218.13,-79.94 223.26,-83.7 221.6,-77.56 218.13,-79.94"/>
</g>
<!-- api/swagger.js -->
<g id="node9" class="node">
<title>api/swagger.js</title>
<g id="a_node9"><a xlink:href="api/swagger.js" xlink:title="swagger.js">
<path fill="#ccffcc" stroke="black" d="M71,-68C71,-68 22,-68 22,-68 19,-68 16,-65 16,-62 16,-62 16,-56 16,-56 16,-53 19,-50 22,-50 22,-50 71,-50 71,-50 74,-50 77,-53 77,-56 77,-56 77,-62 77,-62 77,-65 74,-68 71,-68"/>
<text text-anchor="start" x="24" y="-56.8" font-family="Helvetica,sans-Serif" font-size="9.00">swagger.js</text>
</a>
</g>
</g>
</g>
</svg>
