<?xml version="1.0" encoding="UTF-8"?><svg id="Warstwa_1" xmlns="http://www.w3.org/2000/svg" viewBox="0 0 516.73 488.22"><defs><style>.cls-1{fill:#fff;}.cls-2{font-family:ArialMT, Arial;}.cls-2,.cls-3{font-size:12.01px;}.cls-2,.cls-3,.cls-4{isolation:isolate;}.cls-5{stroke-miterlimit:10;}.cls-5,.cls-6{fill:none;stroke:#000;}.cls-3,.cls-4{font-family:Arial-BoldMT, Arial;}.cls-4{font-size:13.01px;}.cls-6{stroke-miterlimit:4;stroke-width:1px;}</style></defs><rect class="cls-1" width="516.73" height="488.22"/><g><text class="cls-3" transform="translate(198.96 449.24)"><tspan x="0" y="0">aplikacje-mobilne.db</tspan></text><g id="node1"><path class="cls-6" d="M308.73,296.07h120.12c6.01,0,12.01-6.01,12.01-12.01V135.91c0-6.01-6.01-12.01-12.01-12.01h-120.12c-6.01,0-12.01,6.01-12.01,12.01v148.14c0,6.01,6.01,12.01,12.01,12.01"/><text class="cls-4" transform="translate(332.75 144.32)"><tspan x="0" y="0">transaction</tspan></text><line class="cls-6" x1="296.72" y1="153.93" x2="440.86" y2="153.93"/><text class="cls-2" transform="translate(303.72 167.54)"><tspan x="0" y="0">id*</tspan></text><text class="cls-3" transform="translate(321.74 167.54)"><tspan x="0" y="0">integer</tspan></text><text class="cls-2" transform="translate(303.72 184.56)"><tspan x="0" y="0">description</tspan></text><text class="cls-3" transform="translate(365.78 184.56)"><tspan x="0" y="0">text</tspan></text><text class="cls-2" transform="translate(303.72 201.58)"><tspan x="0" y="0">value</tspan></text><text class="cls-3" transform="translate(336.76 201.58)"><tspan x="0" y="0">real</tspan></text><text class="cls-2" transform="translate(303.72 218.59)"><tspan x="0" y="0">categoryId</tspan></text><text class="cls-3" transform="translate(362.78 218.59)"><tspan x="0" y="0">integer</tspan></text><text class="cls-2" transform="translate(303.72 235.61)"><tspan x="0" y="0">currencyId</tspan></text><text class="cls-3" transform="translate(362.78 235.61)"><tspan x="0" y="0">integer</tspan></text><text class="cls-2" transform="translate(303.72 252.62)"><tspan x="0" y="0">typeId</tspan></text><text class="cls-3" transform="translate(339.76 252.62)"><tspan x="0" y="0">integer</tspan></text><text class="cls-2" transform="translate(303.72 269.64)"><tspan x="0" y="0">priorityId</tspan></text><text class="cls-3" transform="translate(352.77 269.64)"><tspan x="0" y="0">integer</tspan></text><text class="cls-2" transform="translate(303.72 286.66)"><tspan x="0" y="0">date</tspan></text><text class="cls-3" transform="translate(330.75 286.66)"><tspan x="0" y="0">text</tspan></text></g><g id="node2"><path class="cls-6" d="M308.73,104.53h120.12c6.01,0,12.01-6.01,12.01-12.01V46.48c0-6.01-6.01-12.01-12.01-12.01h-120.12c-6.01,0-12.01,6.01-12.01,12.01v46.04c0,6.01,6.01,12.01,12.01,12.01"/><text class="cls-4" transform="translate(340.76 54.89)"><tspan x="0" y="0">category</tspan></text><line class="cls-6" x1="296.72" y1="64.49" x2="440.86" y2="64.49"/><text class="cls-2" transform="translate(303.72 78.11)"><tspan x="0" y="0">id*</tspan></text><text class="cls-3" transform="translate(321.74 78.11)"><tspan x="0" y="0">integer</tspan></text><text class="cls-2" transform="translate(303.72 95.12)"><tspan x="0" y="0">name</tspan></text><text class="cls-3" transform="translate(337.76 95.12)"><tspan x="0" y="0">text</tspan></text></g><g id="node3"><path class="cls-6" d="M308.73,402.52h120.12c6.01,0,12.01-6.01,12.01-12.01v-63.06c0-6.01-6.01-12.01-12.01-12.01h-120.12c-6.01,0-12.01,6.01-12.01,12.01v63.06c0,6.01,6.01,12.01,12.01,12.01"/><text class="cls-4" transform="translate(345.76 335.85)"><tspan x="0" y="0">priority</tspan></text><line class="cls-6" x1="296.72" y1="345.46" x2="440.86" y2="345.46"/><text class="cls-2" transform="translate(303.72 359.58)"><tspan x="0" y="0">id*</tspan></text><text class="cls-3" transform="translate(321.74 359.58)"><tspan x="0" y="0">integer</tspan></text><text class="cls-2" transform="translate(303.72 376.59)"><tspan x="0" y="0">value</tspan></text><text class="cls-3" transform="translate(336.76 376.59)"><tspan x="0" y="0">integer</tspan></text><text class="cls-2" transform="translate(303.72 393.61)"><tspan x="0" y="0">name</tspan></text><text class="cls-3" transform="translate(337.76 393.61)"><tspan x="0" y="0">text</tspan></text></g><g id="node4"><path class="cls-6" d="M101.9,386.01h120.12c6.01,0,12.01-6.01,12.01-12.01v-46.04c0-6.01-6.01-12.01-12.01-12.01H101.9c-6.01,0-12.01,6.01-12.01,12.01v46.04c0,6.01,6.01,12.01,12.01,12.01"/><text class="cls-4" transform="translate(147.94 336.36)"><tspan x="0" y="0">type</tspan></text><line class="cls-6" x1="89.88" y1="345.97" x2="234.02" y2="345.97"/><text class="cls-2" transform="translate(96.89 359.58)"><tspan x="0" y="0">id*</tspan></text><text class="cls-3" transform="translate(114.91 359.58)"><tspan x="0" y="0">integer</tspan></text><text class="cls-2" transform="translate(96.89 376.6)"><tspan x="0" y="0">name</tspan></text><text class="cls-3" transform="translate(130.92 376.6)"><tspan x="0" y="0">text</tspan></text></g><g id="node5"><path class="cls-6" d="M101.9,210.85h120.12c6.01,0,12.01-6.01,12.01-12.01V118.76c0-6.01-6.01-12.01-12.01-12.01H101.9c-6.01,0-12.01,6.01-12.01,12.01v80.08c0,6.01,6.01,12.01,12.01,12.01"/><text class="cls-4" transform="translate(132.93 127.17)"><tspan x="0" y="0">currency</tspan></text><line class="cls-6" x1="89.88" y1="136.78" x2="234.02" y2="136.78"/><text class="cls-2" transform="translate(96.89 150.39)"><tspan x="0" y="0">id*</tspan></text><text class="cls-3" transform="translate(114.91 150.39)"><tspan x="0" y="0">integer</tspan></text><text class="cls-2" transform="translate(96.89 167.41)"><tspan x="0" y="0">name</tspan></text><text class="cls-3" transform="translate(130.92 167.41)"><tspan x="0" y="0">text</tspan></text><text class="cls-2" transform="translate(96.89 184.42)"><tspan x="0" y="0">symbol</tspan></text><text class="cls-3" transform="translate(138.93 184.42)"><tspan x="0" y="0">text</tspan></text><text class="cls-2" transform="translate(96.89 201.44)"><tspan x="0" y="0">acronym</tspan></text><text class="cls-3" transform="translate(145.94 201.44)"><tspan x="0" y="0">text</tspan></text></g><g><polyline class="cls-5" points="296.72 354.63 280.91 354.63 280.91 266.33 295.63 266.33"/><polygon points="292.32 270.42 291.64 269.69 295.25 266.33 291.64 262.98 292.32 262.24 296.72 266.33 292.32 270.42"/></g><g><polyline class="cls-5" points="89.88 354.63 75.87 354.63 75.87 249.74 295.63 249.74"/><polygon points="292.32 253.83 291.64 253.1 295.25 249.74 291.64 246.38 292.32 245.65 296.72 249.74 292.32 253.83"/></g><g><polyline class="cls-5" points="89.88 144.49 75.87 144.49 75.87 231.96 295.63 231.96"/><polygon points="292.32 236.05 291.64 235.32 295.25 231.96 291.64 228.61 292.32 227.87 296.72 231.96 292.32 236.05"/></g><g><polyline class="cls-5" points="296.72 73.74 280.91 73.74 280.91 214.78 295.63 214.78"/><polygon points="292.32 218.87 291.64 218.13 295.25 214.78 291.64 211.42 292.32 210.69 296.72 214.78 292.32 218.87"/></g></g></svg>