<?xml version="1.0" encoding="utf-8"?>
<!-- Generator: Adobe Illustrator 26.3.1, SVG Export Plug-In . SVG Version: 6.00 Build 0)  -->
<svg version="1.1" id="Warstwa_1" xmlns="http://www.w3.org/2000/svg" xmlns:xlink="http://www.w3.org/1999/xlink" x="0px" y="0px"
	 viewBox="0 0 723.9 488.2" style="enable-background:new 0 0 723.9 488.2;" xml:space="preserve">
<style type="text/css">
	.st0{fill:#FFFFFF;}
	.st1{font-family:'Arial-BoldMT';}
	.st2{font-size:12.01px;}
	.st3{fill:none;stroke:#000000;}
	.st4{font-size:13.01px;}
	.st5{font-family:'ArialMT';}
	.st6{fill:none;stroke:#000000;stroke-miterlimit:10;}
	.st7{fill:none;stroke:#1D1D1B;stroke-miterlimit:10;}
	.st8{fill:#1D1D1B;}
</style>
<rect class="st0" width="723.9" height="488.2"/>
<text transform="matrix(1 0 0 1 302.5485 449.24)" class="st1 st2">aplikacje-mobilne.db</text>
<g id="node1">
	<path class="st3" d="M308.7,296.1h120.1c6,0,12-6,12-12V135.9c0-6-6-12-12-12H308.7c-6,0-12,6-12,12V284
		C296.7,290.1,302.7,296.1,308.7,296.1"/>
	<text transform="matrix(1 0 0 1 332.75 144.32)" class="st1 st4">transaction</text>
	<line class="st3" x1="296.7" y1="153.9" x2="440.9" y2="153.9"/>
	<text transform="matrix(1 0 0 1 303.72 167.54)" class="st5 st2">id*</text>
	<text transform="matrix(1 0 0 1 321.74 167.54)" class="st1 st2">integer</text>
	<text transform="matrix(1 0 0 1 303.72 184.56)" class="st5 st2">description</text>
	<text transform="matrix(1 0 0 1 365.78 184.56)" class="st1 st2">text</text>
	<text transform="matrix(1 0 0 1 303.72 201.58)" class="st5 st2">value</text>
	<text transform="matrix(1 0 0 1 336.76 201.58)" class="st1 st2">real</text>
	<text transform="matrix(1 0 0 1 303.72 218.59)" class="st5 st2">categoryId</text>
	<text transform="matrix(1 0 0 1 362.78 218.59)" class="st1 st2">integer</text>
	<text transform="matrix(1 0 0 1 303.72 235.61)" class="st5 st2">currencyId</text>
	<text transform="matrix(1 0 0 1 362.78 235.61)" class="st1 st2">integer</text>
	<text transform="matrix(1 0 0 1 303.72 252.62)" class="st5 st2">typeId</text>
	<text transform="matrix(1 0 0 1 339.76 252.62)" class="st1 st2">integer</text>
	<text transform="matrix(1 0 0 1 303.72 269.64)" class="st5 st2">priorityId</text>
	<text transform="matrix(1 0 0 1 352.77 269.64)" class="st1 st2">integer</text>
	<text transform="matrix(1 0 0 1 303.72 286.66)" class="st5 st2">date</text>
	<text transform="matrix(1 0 0 1 330.75 286.66)" class="st1 st2">text</text>
</g>
<g id="node2">
	<path class="st3" d="M308.7,104.5h120.1c6,0,12-6,12-12v-46c0-6-6-12-12-12H308.7c-6,0-12,6-12,12v46
		C296.7,98.5,302.7,104.5,308.7,104.5"/>
	<text transform="matrix(1 0 0 1 340.76 54.89)" class="st1 st4">category</text>
	<line class="st3" x1="296.7" y1="64.5" x2="440.9" y2="64.5"/>
	<text transform="matrix(1 0 0 1 303.72 78.11)" class="st5 st2">id*</text>
	<text transform="matrix(1 0 0 1 321.74 78.11)" class="st1 st2">integer</text>
	<text transform="matrix(1 0 0 1 303.72 95.12)" class="st5 st2">name</text>
	<text transform="matrix(1 0 0 1 337.76 95.12)" class="st1 st2">text</text>
</g>
<g id="node3">
	<path class="st3" d="M308.7,402.5h120.1c6,0,12-6,12-12v-63.1c0-6-6-12-12-12H308.7c-6,0-12,6-12,12v63.1
		C296.7,396.5,302.7,402.5,308.7,402.5"/>
	<text transform="matrix(1 0 0 1 345.76 335.85)" class="st1 st4">priority</text>
	<line class="st3" x1="296.7" y1="345.5" x2="440.9" y2="345.5"/>
	<text transform="matrix(1 0 0 1 303.72 359.58)" class="st5 st2">id*</text>
	<text transform="matrix(1 0 0 1 321.74 359.58)" class="st1 st2">integer</text>
	<text transform="matrix(1 0 0 1 303.72 376.59)" class="st5 st2">value</text>
	<text transform="matrix(1 0 0 1 336.76 376.59)" class="st1 st2">integer</text>
	<text transform="matrix(1 0 0 1 303.72 393.61)" class="st5 st2">name</text>
	<text transform="matrix(1 0 0 1 337.76 393.61)" class="st1 st2">text</text>
</g>
<g id="node4">
	<path class="st3" d="M101.9,386H222c6,0,12-6,12-12v-46c0-6-6-12-12-12H101.9c-6,0-12,6-12,12v46C89.9,380,95.9,386,101.9,386"/>
	<text transform="matrix(1 0 0 1 147.94 336.36)" class="st1 st4">type</text>
	<line class="st3" x1="89.9" y1="346" x2="234" y2="346"/>
	<text transform="matrix(1 0 0 1 96.89 359.58)" class="st5 st2">id*</text>
	<text transform="matrix(1 0 0 1 114.91 359.58)" class="st1 st2">integer</text>
	<text transform="matrix(1 0 0 1 96.89 376.6)" class="st5 st2">name</text>
	<text transform="matrix(1 0 0 1 130.92 376.6)" class="st1 st2">text</text>
</g>
<g id="node5">
	<path class="st3" d="M101.9,210.9H222c6,0,12-6,12-12v-80.1c0-6-6-12-12-12H101.9c-6,0-12,6-12,12v80.1
		C89.9,204.8,95.9,210.8,101.9,210.9"/>
	<text transform="matrix(1 0 0 1 132.93 127.17)" class="st1 st4">currency</text>
	<line class="st3" x1="89.9" y1="136.8" x2="234" y2="136.8"/>
	<text transform="matrix(1 0 0 1 96.89 150.39)" class="st5 st2">id*</text>
	<text transform="matrix(1 0 0 1 114.91 150.39)" class="st1 st2">integer</text>
	<text transform="matrix(1 0 0 1 96.89 167.41)" class="st5 st2">name</text>
	<text transform="matrix(1 0 0 1 130.92 167.41)" class="st1 st2">text</text>
	<text transform="matrix(1 0 0 1 96.89 184.42)" class="st5 st2">symbol</text>
	<text transform="matrix(1 0 0 1 138.93 184.42)" class="st1 st2">text</text>
	<text transform="matrix(1 0 0 1 96.89 201.44)" class="st5 st2">acronym</text>
	<text transform="matrix(1 0 0 1 145.94 201.44)" class="st1 st2">text</text>
</g>
<g>
	<polyline class="st6" points="296.7,354.6 280.9,354.6 280.9,266.3 295.6,266.3 	"/>
	<polygon points="292.3,270.4 291.6,269.7 295.2,266.3 291.6,263 292.3,262.2 296.7,266.3 	"/>
</g>
<g>
	<polyline class="st6" points="89.9,354.6 75.9,354.6 75.9,249.7 295.6,249.7 	"/>
	<polygon points="292.3,253.8 291.6,253.1 295.2,249.7 291.6,246.4 292.3,245.6 296.7,249.7 	"/>
</g>
<g>
	<polyline class="st6" points="89.9,144.5 75.9,144.5 75.9,232 295.6,232 	"/>
	<polygon points="292.3,236.1 291.6,235.3 295.2,232 291.6,228.6 292.3,227.9 296.7,232 	"/>
</g>
<g>
	<polyline class="st6" points="296.7,73.7 280.9,73.7 280.9,214.8 295.6,214.8 	"/>
	<polygon points="292.3,218.9 291.6,218.1 295.2,214.8 291.6,211.4 292.3,210.7 296.7,214.8 	"/>
</g>
<g>
	<path class="st3" d="M495.3,258.3h120.1c6,0,12-6,12-12v-63.1c0-6-6-12-12-12H495.3c-6,0-12,6-12,12v63.1
		C483.3,252.3,489.3,258.3,495.3,258.3"/>
	<text transform="matrix(1 0 0 1 520.6735 191.5597)" class="st1 st4">attachment</text>
	<line class="st3" x1="483.9" y1="201.2" x2="628" y2="201.2"/>
	<text transform="matrix(1 0 0 1 487.8204 214.7798)" class="st5 st2">id*</text>
	<text transform="matrix(1 0 0 1 505.8405 214.7798)" class="st1 st2">integer</text>
	<text transform="matrix(1 0 0 1 563.2897 248.9418)" class="st1 st2">integer</text>
	<text transform="matrix(1 0 0 1 487.8204 231.7998)" class="st5 st2">url</text>
	<text transform="matrix(1 0 0 1 506.7048 231.7998)" class="st1 st2">blob</text>
	<text transform="matrix(1 0 0 1 487.8204 248.8097)" class="st5 st2">transactionId</text>
</g>
<g>
	<g>
		<polyline class="st7" points="296.7,164.1 288.8,164.1 288.8,114.8 475.4,114.8 475.4,210 475.4,245.6 482.2,245.6 		"/>
		<g>
			<polygon class="st8" points="478.9,249.7 478.2,249 481.8,245.7 478.2,242.3 478.9,241.6 483.3,245.7 			"/>
		</g>
	</g>
</g>
</svg>
