<?xml version="1.0" encoding="UTF-8" standalone="no"?>
<!DOCTYPE svg PUBLIC "-//W3C//DTD SVG 1.1//EN"
 "http://www.w3.org/Graphics/SVG/1.1/DTD/svg11.dtd">
<!-- Generated by graphviz version 3.0.0 (20220226.1711)
 -->
<!-- Title: dependency&#45;cruiser output Pages: 1 -->
<svg width="405pt" height="414pt"
 viewBox="0.00 0.00 405.00 414.00" xmlns="http://www.w3.org/2000/svg" xmlns:xlink="http://www.w3.org/1999/xlink">
<g id="graph0" class="graph" transform="scale(1 1) rotate(0) translate(4 410)">
<title>dependency&#45;cruiser output</title>
<polygon fill="white" stroke="transparent" points="-4,4 -4,-410 401,-410 401,4 -4,4"/>
<g id="clust1" class="cluster">
<title>cluster_src</title>
<path fill="#ffffff" stroke="black" stroke-width="2" d="M20,-8C20,-8 377,-8 377,-8 383,-8 389,-14 389,-20 389,-20 389,-386 389,-386 389,-392 383,-398 377,-398 377,-398 20,-398 20,-398 14,-398 8,-392 8,-386 8,-386 8,-20 8,-20 8,-14 14,-8 20,-8"/>
<text text-anchor="middle" x="198.5" y="-386.8" font-family="Helvetica,sans-Serif" font-weight="bold" font-size="9.00">src</text>
</g>
<g id="clust2" class="cluster">
<title>cluster_src/components</title>
<path fill="#ffffff" stroke="black" stroke-width="2" d="M159.5,-40C159.5,-40 280,-40 280,-40 286,-40 292,-46 292,-52 292,-52 292,-140 292,-140 292,-146 286,-152 280,-152 280,-152 159.5,-152 159.5,-152 153.5,-152 147.5,-146 147.5,-140 147.5,-140 147.5,-52 147.5,-52 147.5,-46 153.5,-40 159.5,-40"/>
<text text-anchor="middle" x="219.75" y="-140.8" font-family="Helvetica,sans-Serif" font-weight="bold" font-size="9.00">components</text>
</g>
<g id="clust3" class="cluster">
<title>cluster_src/context</title>
<path fill="#ffffff" stroke="black" stroke-width="2" d="M316,-200C316,-200 365,-200 365,-200 371,-200 377,-206 377,-212 377,-212 377,-240 377,-240 377,-246 371,-252 365,-252 365,-252 316,-252 316,-252 310,-252 304,-246 304,-240 304,-240 304,-212 304,-212 304,-206 310,-200 316,-200"/>
<text text-anchor="middle" x="340.5" y="-240.8" font-family="Helvetica,sans-Serif" font-weight="bold" font-size="9.00">context</text>
</g>
<g id="clust4" class="cluster">
<title>cluster_src/css</title>
<path fill="#ffffff" stroke="black" stroke-width="2" d="M312,-16C312,-16 369,-16 369,-16 375,-16 381,-22 381,-28 381,-28 381,-146 381,-146 381,-152 375,-158 369,-158 369,-158 312,-158 312,-158 306,-158 300,-152 300,-146 300,-146 300,-28 300,-28 300,-22 306,-16 312,-16"/>
<text text-anchor="middle" x="340.5" y="-146.8" font-family="Helvetica,sans-Serif" font-weight="bold" font-size="9.00">css</text>
</g>
<g id="clust5" class="cluster">
<title>cluster_src/pages</title>
<path fill="#ffffff" stroke="black" stroke-width="2" d="M157,-170C157,-170 208,-170 208,-170 214,-170 220,-176 220,-182 220,-182 220,-360 220,-360 220,-366 214,-372 208,-372 208,-372 157,-372 157,-372 151,-372 145,-366 145,-360 145,-360 145,-182 145,-182 145,-176 151,-170 157,-170"/>
<text text-anchor="middle" x="182.5" y="-360.8" font-family="Helvetica,sans-Serif" font-weight="bold" font-size="9.00">pages</text>
</g>
<!-- src/App.js -->
<g id="node1" class="node">
<title>src/App.js</title>
<g id="a_node1"><a xlink:href="src/App.js" xlink:title="App.js">
<path fill="#ffffcc" stroke="black" d="M131,-226C131,-226 89,-226 89,-226 86,-226 83,-223 83,-220 83,-220 83,-214 83,-214 83,-211 86,-208 89,-208 89,-208 131,-208 131,-208 134,-208 137,-211 137,-214 137,-214 137,-220 137,-220 137,-223 134,-226 131,-226"/>
<text text-anchor="start" x="97" y="-214.8" font-family="Helvetica,sans-Serif" font-size="9.00">App.js</text>
</a>
</g>
</g>
<!-- src/components/index.js -->
<g id="node2" class="node">
<title>src/components/index.js</title>
<g id="a_node2"><a xlink:href="src/components/index.js" xlink:title="index.js">
<path fill="#ffffcc" stroke="black" d="M203.5,-126C203.5,-126 161.5,-126 161.5,-126 158.5,-126 155.5,-123 155.5,-120 155.5,-120 155.5,-114 155.5,-114 155.5,-111 158.5,-108 161.5,-108 161.5,-108 203.5,-108 203.5,-108 206.5,-108 209.5,-111 209.5,-114 209.5,-114 209.5,-120 209.5,-120 209.5,-123 206.5,-126 203.5,-126"/>
<text text-anchor="start" x="166.5" y="-114.8" font-family="Helvetica,sans-Serif" font-size="9.00">index.js</text>
</a>
</g>
</g>
<!-- src/App.js&#45;&gt;src/components/index.js -->
<g id="edge1" class="edge">
<title>src/App.js&#45;&gt;src/components/index.js</title>
<path fill="none" stroke="#000000" stroke-width="2" stroke-opacity="0.200000" d="M117.17,-207.72C123.92,-197.63 135.08,-181.07 145,-167 153.65,-154.73 163.72,-140.97 171.09,-130.99"/>
<polygon fill="#000000" fill-opacity="0.200000" stroke="#000000" stroke-width="2" stroke-opacity="0.200000" points="172.8,-132.22 174.68,-126.15 169.42,-129.72 172.8,-132.22"/>
</g>
<!-- src/css/App.css -->
<g id="node3" class="node">
<title>src/css/App.css</title>
<g id="a_node3"><a xlink:href="src/css/App.css" xlink:title="App.css">
<path fill="#ffffcc" stroke="black" d="M361.5,-72C361.5,-72 319.5,-72 319.5,-72 316.5,-72 313.5,-69 313.5,-66 313.5,-66 313.5,-60 313.5,-60 313.5,-57 316.5,-54 319.5,-54 319.5,-54 361.5,-54 361.5,-54 364.5,-54 367.5,-57 367.5,-60 367.5,-60 367.5,-66 367.5,-66 367.5,-69 364.5,-72 361.5,-72"/>
<text text-anchor="start" x="324" y="-60.8" font-family="Helvetica,sans-Serif" font-size="9.00">App.css</text>
</a>
</g>
</g>
<!-- src/App.js&#45;&gt;src/css/App.css -->
<g id="edge2" class="edge">
<title>src/App.js&#45;&gt;src/css/App.css</title>
<path fill="none" stroke="#000000" stroke-width="2" stroke-opacity="0.200000" d="M111.26,-207.74C112.42,-174.1 118.31,-59.12 145,-37 170.15,-16.15 262.89,-22.18 292,-37 297.39,-39.74 295.2,-44.33 300,-48 302.35,-49.8 304.95,-51.4 307.65,-52.83"/>
<polygon fill="#000000" fill-opacity="0.200000" stroke="#000000" stroke-width="2" stroke-opacity="0.200000" points="306.97,-54.83 313.29,-55.51 308.78,-51.04 306.97,-54.83"/>
</g>
<!-- src/pages/Add.js -->
<g id="node4" class="node">
<title>src/pages/Add.js</title>
<g id="a_node4"><a xlink:href="src/pages/Add.js" xlink:title="Add.js">
<path fill="#ffffcc" stroke="black" d="M203.5,-286C203.5,-286 161.5,-286 161.5,-286 158.5,-286 155.5,-283 155.5,-280 155.5,-280 155.5,-274 155.5,-274 155.5,-271 158.5,-268 161.5,-268 161.5,-268 203.5,-268 203.5,-268 206.5,-268 209.5,-271 209.5,-274 209.5,-274 209.5,-280 209.5,-280 209.5,-283 206.5,-286 203.5,-286"/>
<text text-anchor="start" x="169.5" y="-274.8" font-family="Helvetica,sans-Serif" font-size="9.00">Add.js</text>
</a>
</g>
</g>
<!-- src/App.js&#45;&gt;src/pages/Add.js -->
<g id="edge3" class="edge">
<title>src/App.js&#45;&gt;src/pages/Add.js</title>
<path fill="none" stroke="#000000" stroke-width="2" stroke-opacity="0.200000" d="M115.88,-226.09C121.65,-236.1 132.13,-252.07 145,-262 146.57,-263.21 148.26,-264.34 150.01,-265.4"/>
<polygon fill="#000000" fill-opacity="0.200000" stroke="#000000" stroke-width="2" stroke-opacity="0.200000" points="149.14,-267.31 155.42,-268.32 151.14,-263.62 149.14,-267.31"/>
</g>
<!-- src/pages/Charts.js -->
<g id="node5" class="node">
<title>src/pages/Charts.js</title>
<g id="a_node5"><a xlink:href="src/pages/Charts.js" xlink:title="Charts.js">
<path fill="#ffffcc" stroke="black" d="M203.5,-316C203.5,-316 161.5,-316 161.5,-316 158.5,-316 155.5,-313 155.5,-310 155.5,-310 155.5,-304 155.5,-304 155.5,-301 158.5,-298 161.5,-298 161.5,-298 203.5,-298 203.5,-298 206.5,-298 209.5,-301 209.5,-304 209.5,-304 209.5,-310 209.5,-310 209.5,-313 206.5,-316 203.5,-316"/>
<text text-anchor="start" x="164" y="-304.8" font-family="Helvetica,sans-Serif" font-size="9.00">Charts.js</text>
</a>
</g>
</g>
<!-- src/App.js&#45;&gt;src/pages/Charts.js -->
<g id="edge4" class="edge">
<title>src/App.js&#45;&gt;src/pages/Charts.js</title>
<path fill="none" stroke="#000000" stroke-width="2" stroke-opacity="0.200000" d="M112.83,-226.11C116.39,-241.64 125.66,-273.34 145,-292 146.48,-293.43 148.11,-294.73 149.84,-295.91"/>
<polygon fill="#000000" fill-opacity="0.200000" stroke="#000000" stroke-width="2" stroke-opacity="0.200000" points="149.04,-297.87 155.28,-299.11 151.17,-294.25 149.04,-297.87"/>
</g>
<!-- src/pages/Edit.js -->
<g id="node6" class="node">
<title>src/pages/Edit.js</title>
<g id="a_node6"><a xlink:href="src/pages/Edit.js" xlink:title="Edit.js">
<path fill="#ffffcc" stroke="black" d="M203.5,-346C203.5,-346 161.5,-346 161.5,-346 158.5,-346 155.5,-343 155.5,-340 155.5,-340 155.5,-334 155.5,-334 155.5,-331 158.5,-328 161.5,-328 161.5,-328 203.5,-328 203.5,-328 206.5,-328 209.5,-331 209.5,-334 209.5,-334 209.5,-340 209.5,-340 209.5,-343 206.5,-346 203.5,-346"/>
<text text-anchor="start" x="170" y="-334.8" font-family="Helvetica,sans-Serif" font-size="9.00">Edit.js</text>
</a>
</g>
</g>
<!-- src/App.js&#45;&gt;src/pages/Edit.js -->
<g id="edge5" class="edge">
<title>src/App.js&#45;&gt;src/pages/Edit.js</title>
<path fill="none" stroke="#000000" stroke-width="2" stroke-opacity="0.200000" d="M111.45,-226.14C112.92,-246.09 119.09,-294.02 145,-322 146.53,-323.66 148.28,-325.13 150.15,-326.45"/>
<polygon fill="#000000" fill-opacity="0.200000" stroke="#000000" stroke-width="2" stroke-opacity="0.200000" points="149.13,-328.29 155.36,-329.58 151.3,-324.69 149.13,-328.29"/>
</g>
<!-- src/pages/Filters.js -->
<g id="node7" class="node">
<title>src/pages/Filters.js</title>
<g id="a_node7"><a xlink:href="src/pages/Filters.js" xlink:title="Filters.js">
<path fill="#ffffcc" stroke="black" d="M203.5,-196C203.5,-196 161.5,-196 161.5,-196 158.5,-196 155.5,-193 155.5,-190 155.5,-190 155.5,-184 155.5,-184 155.5,-181 158.5,-178 161.5,-178 161.5,-178 203.5,-178 203.5,-178 206.5,-178 209.5,-181 209.5,-184 209.5,-184 209.5,-190 209.5,-190 209.5,-193 206.5,-196 203.5,-196"/>
<text text-anchor="start" x="165.5" y="-184.8" font-family="Helvetica,sans-Serif" font-size="9.00">Filters.js</text>
</a>
</g>
</g>
<!-- src/App.js&#45;&gt;src/pages/Filters.js -->
<g id="edge6" class="edge">
<title>src/App.js&#45;&gt;src/pages/Filters.js</title>
<path fill="none" stroke="#000000" stroke-width="2" stroke-opacity="0.200000" d="M131.46,-207.87C135.91,-205.91 140.61,-203.87 145,-202 147.69,-200.85 150.51,-199.67 153.32,-198.5"/>
<polygon fill="#000000" fill-opacity="0.200000" stroke="#000000" stroke-width="2" stroke-opacity="0.200000" points="154.33,-200.35 159.07,-196.11 152.72,-196.47 154.33,-200.35"/>
</g>
<!-- src/pages/Home.js -->
<g id="node8" class="node">
<title>src/pages/Home.js</title>
<g id="a_node8"><a xlink:href="src/pages/Home.js" xlink:title="Home.js">
<path fill="#ffffcc" stroke="black" d="M203.5,-256C203.5,-256 161.5,-256 161.5,-256 158.5,-256 155.5,-253 155.5,-250 155.5,-250 155.5,-244 155.5,-244 155.5,-241 158.5,-238 161.5,-238 161.5,-238 203.5,-238 203.5,-238 206.5,-238 209.5,-241 209.5,-244 209.5,-244 209.5,-250 209.5,-250 209.5,-253 206.5,-256 203.5,-256"/>
<text text-anchor="start" x="165.5" y="-244.8" font-family="Helvetica,sans-Serif" font-size="9.00">Home.js</text>
</a>
</g>
</g>
<!-- src/App.js&#45;&gt;src/pages/Home.js -->
<g id="edge7" class="edge">
<title>src/App.js&#45;&gt;src/pages/Home.js</title>
<path fill="none" stroke="#000000" stroke-width="2" stroke-opacity="0.200000" d="M131.46,-226.13C135.91,-228.09 140.61,-230.13 145,-232 147.69,-233.15 150.51,-234.33 153.32,-235.5"/>
<polygon fill="#000000" fill-opacity="0.200000" stroke="#000000" stroke-width="2" stroke-opacity="0.200000" points="152.72,-237.53 159.07,-237.89 154.33,-233.65 152.72,-237.53"/>
</g>
<!-- src/pages/Settings.js -->
<g id="node9" class="node">
<title>src/pages/Settings.js</title>
<g id="a_node9"><a xlink:href="src/pages/Settings.js" xlink:title="Settings.js">
<path fill="#ffffcc" stroke="black" d="M206,-226C206,-226 159,-226 159,-226 156,-226 153,-223 153,-220 153,-220 153,-214 153,-214 153,-211 156,-208 159,-208 159,-208 206,-208 206,-208 209,-208 212,-211 212,-214 212,-214 212,-220 212,-220 212,-223 209,-226 206,-226"/>
<text text-anchor="start" x="161" y="-214.8" font-family="Helvetica,sans-Serif" font-size="9.00">Settings.js</text>
</a>
</g>
</g>
<!-- src/App.js&#45;&gt;src/pages/Settings.js -->
<g id="edge8" class="edge">
<title>src/App.js&#45;&gt;src/pages/Settings.js</title>
<path fill="none" stroke="#000000" stroke-width="2" stroke-opacity="0.200000" d="M137.25,-217C140.23,-217 143.29,-217 146.36,-217"/>
<polygon fill="#000000" fill-opacity="0.200000" stroke="#000000" stroke-width="2" stroke-opacity="0.200000" points="146.62,-219.1 152.62,-217 146.62,-214.9 146.62,-219.1"/>
</g>
<!-- src/components/Header.js -->
<g id="node10" class="node">
<title>src/components/Header.js</title>
<g id="a_node10"><a xlink:href="src/components/Header.js" xlink:title="Header.js">
<path fill="#ffffcc" stroke="black" d="M278,-96C278,-96 234,-96 234,-96 231,-96 228,-93 228,-90 228,-90 228,-84 228,-84 228,-81 231,-78 234,-78 234,-78 278,-78 278,-78 281,-78 284,-81 284,-84 284,-84 284,-90 284,-90 284,-93 281,-96 278,-96"/>
<text text-anchor="start" x="236" y="-84.8" font-family="Helvetica,sans-Serif" font-size="9.00">Header.js</text>
</a>
</g>
</g>
<!-- src/components/index.js&#45;&gt;src/components/Header.js -->
<g id="edge12" class="edge">
<title>src/components/index.js&#45;&gt;src/components/Header.js</title>
<path fill="none" stroke="#000000" stroke-width="2" stroke-opacity="0.200000" d="M209.56,-108.12C213.09,-106.8 216.65,-105.41 220,-104 223.85,-102.38 227.88,-100.56 231.78,-98.72"/>
<polygon fill="#000000" fill-opacity="0.200000" stroke="#000000" stroke-width="2" stroke-opacity="0.200000" points="232.87,-100.52 237.37,-96.03 231.05,-96.74 232.87,-100.52"/>
</g>
<!-- src/components/List.js -->
<g id="node12" class="node">
<title>src/components/List.js</title>
<g id="a_node12"><a xlink:href="src/components/List.js" xlink:title="List.js">
<path fill="#ffffcc" stroke="black" d="M277,-126C277,-126 235,-126 235,-126 232,-126 229,-123 229,-120 229,-120 229,-114 229,-114 229,-111 232,-108 235,-108 235,-108 277,-108 277,-108 280,-108 283,-111 283,-114 283,-114 283,-120 283,-120 283,-123 280,-126 277,-126"/>
<text text-anchor="start" x="244" y="-114.8" font-family="Helvetica,sans-Serif" font-size="9.00">List.js</text>
</a>
</g>
</g>
<!-- src/components/index.js&#45;&gt;src/components/List.js -->
<g id="edge13" class="edge">
<title>src/components/index.js&#45;&gt;src/components/List.js</title>
<path fill="none" stroke="#000000" stroke-width="2" stroke-opacity="0.200000" d="M209.72,-117C213.9,-117 218.26,-117 222.56,-117"/>
<polygon fill="#000000" fill-opacity="0.200000" stroke="#000000" stroke-width="2" stroke-opacity="0.200000" points="222.79,-119.1 228.79,-117 222.79,-114.9 222.79,-119.1"/>
</g>
<!-- src/components/Nav.js -->
<g id="node13" class="node">
<title>src/components/Nav.js</title>
<g id="a_node13"><a xlink:href="src/components/Nav.js" xlink:title="Nav.js">
<path fill="#ffffcc" stroke="black" d="M277,-66C277,-66 235,-66 235,-66 232,-66 229,-63 229,-60 229,-60 229,-54 229,-54 229,-51 232,-48 235,-48 235,-48 277,-48 277,-48 280,-48 283,-51 283,-54 283,-54 283,-60 283,-60 283,-63 280,-66 277,-66"/>
<text text-anchor="start" x="243" y="-54.8" font-family="Helvetica,sans-Serif" font-size="9.00">Nav.js</text>
</a>
</g>
</g>
<!-- src/components/index.js&#45;&gt;src/components/Nav.js -->
<g id="edge14" class="edge">
<title>src/components/index.js&#45;&gt;src/components/Nav.js</title>
<path fill="none" stroke="#000000" stroke-width="2" stroke-opacity="0.200000" d="M209.79,-111.24C213.61,-109.44 217.2,-107.09 220,-104 229.85,-93.14 219.08,-83.63 228,-72 228.42,-71.45 228.88,-70.91 229.35,-70.39"/>
<polygon fill="#000000" fill-opacity="0.200000" stroke="#000000" stroke-width="2" stroke-opacity="0.200000" points="231.01,-71.72 234.12,-66.18 228.23,-68.58 231.01,-71.72"/>
</g>
<!-- src/context/Context.js -->
<g id="node11" class="node">
<title>src/context/Context.js</title>
<g id="a_node11"><a xlink:href="src/context/Context.js" xlink:title="Context.js">
<path fill="#ffffcc" stroke="black" d="M363,-226C363,-226 318,-226 318,-226 315,-226 312,-223 312,-220 312,-220 312,-214 312,-214 312,-211 315,-208 318,-208 318,-208 363,-208 363,-208 366,-208 369,-211 369,-214 369,-214 369,-220 369,-220 369,-223 366,-226 363,-226"/>
<text text-anchor="start" x="320" y="-214.8" font-family="Helvetica,sans-Serif" font-size="9.00">Context.js</text>
</a>
</g>
</g>
<!-- src/pages/Add.js&#45;&gt;src/context/Context.js -->
<g id="edge18" class="edge">
<title>src/pages/Add.js&#45;&gt;src/context/Context.js</title>
<path fill="none" stroke="#000000" stroke-width="2" stroke-opacity="0.200000" d="M208.11,-267.85C230.14,-259.63 263.29,-247.17 292,-236 298.21,-233.58 304.86,-230.95 311.16,-228.44"/>
<polygon fill="#000000" fill-opacity="0.200000" stroke="#000000" stroke-width="2" stroke-opacity="0.200000" points="312.03,-230.35 316.82,-226.17 310.47,-226.45 312.03,-230.35"/>
</g>
<!-- src/pages/Charts.js&#45;&gt;src/context/Context.js -->
<g id="edge19" class="edge">
<title>src/pages/Charts.js&#45;&gt;src/context/Context.js</title>
<path fill="none" stroke="#000000" stroke-width="2" stroke-opacity="0.200000" d="M206.87,-297.92C211.27,-296.06 215.81,-294.04 220,-292 253.1,-275.86 260.99,-270.85 292,-251 302.42,-244.33 313.71,-236.29 322.66,-229.7"/>
<polygon fill="#000000" fill-opacity="0.200000" stroke="#000000" stroke-width="2" stroke-opacity="0.200000" points="324.06,-231.28 327.63,-226.02 321.56,-227.9 324.06,-231.28"/>
</g>
<!-- src/pages/Edit.js&#45;&gt;src/context/Context.js -->
<g id="edge20" class="edge">
<title>src/pages/Edit.js&#45;&gt;src/context/Context.js</title>
<path fill="none" stroke="#000000" stroke-width="2" stroke-opacity="0.200000" d="M207.78,-327.85C211.93,-326.05 216.14,-324.08 220,-322 254.08,-303.66 263.22,-298.88 292,-273 306.14,-260.28 319.93,-243.38 328.97,-231.48"/>
<polygon fill="#000000" fill-opacity="0.200000" stroke="#000000" stroke-width="2" stroke-opacity="0.200000" points="330.86,-232.46 332.78,-226.4 327.5,-229.94 330.86,-232.46"/>
</g>
<!-- src/pages/Filters.js&#45;&gt;src/context/Context.js -->
<g id="edge21" class="edge">
<title>src/pages/Filters.js&#45;&gt;src/context/Context.js</title>
<path fill="none" stroke="#000000" stroke-width="2" stroke-opacity="0.200000" d="M209.61,-192.02C236.09,-197.11 277.17,-205.01 306.03,-210.56"/>
<polygon fill="#000000" fill-opacity="0.200000" stroke="#000000" stroke-width="2" stroke-opacity="0.200000" points="305.7,-212.64 311.99,-211.71 306.49,-208.51 305.7,-212.64"/>
</g>
<!-- src/pages/Home.js&#45;&gt;src/components/index.js -->
<g id="edge22" class="edge">
<title>src/pages/Home.js&#45;&gt;src/components/index.js</title>
<path fill="none" stroke="#000000" stroke-width="2" stroke-opacity="0.200000" d="M155.18,-238.37C151.56,-236.58 148.05,-234.47 145,-232 142.51,-229.98 141.93,-229.07 141,-226 137.59,-214.73 137.59,-184.27 141,-173 145.99,-156.53 158.24,-141.08 168.15,-130.59"/>
<polygon fill="#000000" fill-opacity="0.200000" stroke="#000000" stroke-width="2" stroke-opacity="0.200000" points="169.81,-131.9 172.5,-126.14 166.81,-128.96 169.81,-131.9"/>
</g>
<!-- src/pages/Home.js&#45;&gt;src/context/Context.js -->
<g id="edge23" class="edge">
<title>src/pages/Home.js&#45;&gt;src/context/Context.js</title>
<path fill="none" stroke="#000000" stroke-width="2" stroke-opacity="0.200000" d="M209.61,-241.98C236.09,-236.89 277.17,-228.99 306.03,-223.44"/>
<polygon fill="#000000" fill-opacity="0.200000" stroke="#000000" stroke-width="2" stroke-opacity="0.200000" points="306.49,-225.49 311.99,-222.29 305.7,-221.36 306.49,-225.49"/>
</g>
<!-- src/pages/Settings.js&#45;&gt;src/context/Context.js -->
<g id="edge24" class="edge">
<title>src/pages/Settings.js&#45;&gt;src/context/Context.js</title>
<path fill="none" stroke="#000000" stroke-width="2" stroke-opacity="0.200000" d="M212.11,-217C238.53,-217 277.78,-217 305.72,-217"/>
<polygon fill="#000000" fill-opacity="0.200000" stroke="#000000" stroke-width="2" stroke-opacity="0.200000" points="305.85,-219.1 311.85,-217 305.85,-214.9 305.85,-219.1"/>
</g>
<!-- src/css/Settings.css -->
<g id="node15" class="node">
<title>src/css/Settings.css</title>
<g id="a_node15"><a xlink:href="src/css/Settings.css" xlink:title="Settings.css">
<path fill="#ffffcc" stroke="black" d="M367,-132C367,-132 314,-132 314,-132 311,-132 308,-129 308,-126 308,-126 308,-120 308,-120 308,-117 311,-114 314,-114 314,-114 367,-114 367,-114 370,-114 373,-117 373,-120 373,-120 373,-126 373,-126 373,-129 370,-132 367,-132"/>
<text text-anchor="start" x="316" y="-120.8" font-family="Helvetica,sans-Serif" font-size="9.00">Settings.css</text>
</a>
</g>
</g>
<!-- src/pages/Settings.js&#45;&gt;src/css/Settings.css -->
<g id="edge25" class="edge">
<title>src/pages/Settings.js&#45;&gt;src/css/Settings.css</title>
<path fill="none" stroke="#000000" stroke-width="2" stroke-opacity="0.200000" d="M207.36,-207.95C211.63,-206.12 216,-204.1 220,-202 258.31,-181.85 299.77,-152.59 322.38,-135.91"/>
<polygon fill="#000000" fill-opacity="0.200000" stroke="#000000" stroke-width="2" stroke-opacity="0.200000" points="323.88,-137.42 327.44,-132.15 321.37,-134.04 323.88,-137.42"/>
</g>
<!-- src/components/Header.js&#45;&gt;src/context/Context.js -->
<g id="edge9" class="edge">
<title>src/components/Header.js&#45;&gt;src/context/Context.js</title>
<path fill="none" stroke="#000000" stroke-width="2" stroke-opacity="0.200000" d="M284.29,-95.18C287.24,-97.02 289.92,-99.26 292,-102 308.02,-123.06 290.32,-136.37 300,-161 306.27,-176.94 317.97,-192.66 327.02,-203.37"/>
<polygon fill="#000000" fill-opacity="0.200000" stroke="#000000" stroke-width="2" stroke-opacity="0.200000" points="325.45,-204.76 330.97,-207.92 328.62,-202.01 325.45,-204.76"/>
</g>
<!-- src/components/List.js&#45;&gt;src/context/Context.js -->
<g id="edge10" class="edge">
<title>src/components/List.js&#45;&gt;src/context/Context.js</title>
<path fill="none" stroke="#000000" stroke-width="2" stroke-opacity="0.200000" d="M283.26,-123.47C286.53,-125.17 289.57,-127.3 292,-130 301.53,-140.57 294.02,-148.09 300,-161 307.13,-176.4 318.58,-192.03 327.32,-202.85"/>
<polygon fill="#000000" fill-opacity="0.200000" stroke="#000000" stroke-width="2" stroke-opacity="0.200000" points="325.92,-204.46 331.36,-207.75 329.16,-201.78 325.92,-204.46"/>
</g>
<!-- src/css/Nav.css -->
<g id="node14" class="node">
<title>src/css/Nav.css</title>
<g id="a_node14"><a xlink:href="src/css/Nav.css" xlink:title="Nav.css">
<path fill="#ffffcc" stroke="black" d="M361.5,-102C361.5,-102 319.5,-102 319.5,-102 316.5,-102 313.5,-99 313.5,-96 313.5,-96 313.5,-90 313.5,-90 313.5,-87 316.5,-84 319.5,-84 319.5,-84 361.5,-84 361.5,-84 364.5,-84 367.5,-87 367.5,-90 367.5,-90 367.5,-96 367.5,-96 367.5,-99 364.5,-102 361.5,-102"/>
<text text-anchor="start" x="324" y="-90.8" font-family="Helvetica,sans-Serif" font-size="9.00">Nav.css</text>
</a>
</g>
</g>
<!-- src/components/Nav.js&#45;&gt;src/css/Nav.css -->
<g id="edge11" class="edge">
<title>src/components/Nav.js&#45;&gt;src/css/Nav.css</title>
<path fill="none" stroke="#000000" stroke-width="2" stroke-opacity="0.200000" d="M280.35,-66.08C284.32,-67.89 288.34,-69.88 292,-72 295.85,-74.22 296.11,-75.86 300,-78 302.31,-79.27 304.76,-80.49 307.25,-81.63"/>
<polygon fill="#000000" fill-opacity="0.200000" stroke="#000000" stroke-width="2" stroke-opacity="0.200000" points="306.77,-83.71 313.11,-84.16 308.44,-79.85 306.77,-83.71"/>
</g>
<!-- src/css/index.css -->
<g id="node16" class="node">
<title>src/css/index.css</title>
<g id="a_node16"><a xlink:href="src/css/index.css" xlink:title="index.css">
<path fill="#ffffcc" stroke="black" d="M362,-42C362,-42 319,-42 319,-42 316,-42 313,-39 313,-36 313,-36 313,-30 313,-30 313,-27 316,-24 319,-24 319,-24 362,-24 362,-24 365,-24 368,-27 368,-30 368,-30 368,-36 368,-36 368,-39 365,-42 362,-42"/>
<text text-anchor="start" x="321" y="-30.8" font-family="Helvetica,sans-Serif" font-size="9.00">index.css</text>
</a>
</g>
</g>
<!-- src/index.js -->
<g id="node17" class="node">
<title>src/index.js</title>
<g id="a_node17"><a xlink:href="src/index.js" xlink:title="index.js">
<path fill="#ffffcc" stroke="black" d="M64,-170C64,-170 22,-170 22,-170 19,-170 16,-167 16,-164 16,-164 16,-158 16,-158 16,-155 19,-152 22,-152 22,-152 64,-152 64,-152 67,-152 70,-155 70,-158 70,-158 70,-164 70,-164 70,-167 67,-170 64,-170"/>
<text text-anchor="start" x="27" y="-158.8" font-family="Helvetica,sans-Serif" font-size="9.00">index.js</text>
</a>
</g>
</g>
<!-- src/index.js&#45;&gt;src/App.js -->
<g id="edge15" class="edge">
<title>src/index.js&#45;&gt;src/App.js</title>
<path fill="none" stroke="#000000" stroke-width="2" stroke-opacity="0.200000" d="M54.73,-170.25C65.33,-179.38 81.65,-193.44 93.63,-203.76"/>
<polygon fill="#000000" fill-opacity="0.200000" stroke="#000000" stroke-width="2" stroke-opacity="0.200000" points="92.55,-205.6 98.47,-207.92 95.29,-202.42 92.55,-205.6"/>
</g>
<!-- src/index.js&#45;&gt;src/context/Context.js -->
<g id="edge16" class="edge">
<title>src/index.js&#45;&gt;src/context/Context.js</title>
<path fill="none" stroke="#000000" stroke-width="2" stroke-opacity="0.200000" d="M70.21,-159.47C104.83,-157.99 167.55,-157.23 220,-167 253.3,-173.2 260.92,-178.52 292,-192 300.75,-195.8 310.1,-200.56 318.17,-204.9"/>
<polygon fill="#000000" fill-opacity="0.200000" stroke="#000000" stroke-width="2" stroke-opacity="0.200000" points="317.25,-206.79 323.53,-207.82 319.27,-203.1 317.25,-206.79"/>
</g>
<!-- src/index.js&#45;&gt;src/css/index.css -->
<g id="edge17" class="edge">
<title>src/index.js&#45;&gt;src/css/index.css</title>
<path fill="none" stroke="#000000" stroke-width="2" stroke-opacity="0.200000" d="M47.2,-151.9C56.98,-125.75 89.18,-50.44 145,-22 197.35,4.67 268.21,-9.92 308.35,-22.05"/>
<polygon fill="#000000" fill-opacity="0.200000" stroke="#000000" stroke-width="2" stroke-opacity="0.200000" points="308.17,-24.2 314.53,-23.97 309.42,-20.19 308.17,-24.2"/>
</g>
</g>
</svg>
