<?xml version="1.0" encoding="UTF-8" standalone="no"?>
<!DOCTYPE svg PUBLIC "-//W3C//DTD SVG 1.1//EN"
 "http://www.w3.org/Graphics/SVG/1.1/DTD/svg11.dtd">
<!-- Generated by graphviz version 3.0.0 (20220226.1711)
 -->
<!-- Title: undefined Pages: 1 -->
<svg width="412pt" height="388pt"
 viewBox="0.00 0.00 411.60 387.60" xmlns="http://www.w3.org/2000/svg" xmlns:xlink="http://www.w3.org/1999/xlink">
<g id="graph0" class="graph" transform="scale(1 1) rotate(0) translate(28.8 337.8)">
<title>undefined</title>
<polygon fill="white" stroke="transparent" points="-28.8,49.8 -28.8,-337.8 382.8,-337.8 382.8,49.8 -28.8,49.8"/>
<text text-anchor="start" x="118" y="12.6" font-family="Helvetica,sans-Serif" font-weight="bold" font-size="12.00">aplikacje&#45;mobilne.db</text>
<!-- transaction -->
<g id="node1" class="node">
<title>transaction</title>
<path fill="none" stroke="black" d="M12.24,-14.64C12.24,-14.64 132.24,-14.64 132.24,-14.64 138.24,-14.64 144.24,-20.64 144.24,-26.64 144.24,-26.64 144.24,-174.64 144.24,-174.64 144.24,-180.64 138.24,-186.64 132.24,-186.64 132.24,-186.64 12.24,-186.64 12.24,-186.64 6.24,-186.64 0.24,-180.64 0.24,-174.64 0.24,-174.64 0.24,-26.64 0.24,-26.64 0.24,-20.64 6.24,-14.64 12.24,-14.64"/>
<text text-anchor="start" x="36.24" y="-166.24" font-family="Helvetica,sans-Serif" font-weight="bold" font-size="13.00">transaction</text>
<polyline fill="none" stroke="black" points="0.24,-156.64 144.24,-156.64 "/>
<text text-anchor="start" x="7.24" y="-143.04" font-family="Helvetica,sans-Serif" font-size="12.00">id* </text>
<text text-anchor="start" x="25.24" y="-143.04" font-family="Helvetica,sans-Serif" font-weight="bold" font-size="12.00">integer</text>
<text text-anchor="start" x="7.24" y="-126.04" font-family="Helvetica,sans-Serif" font-size="12.00">description </text>
<text text-anchor="start" x="69.24" y="-126.04" font-family="Helvetica,sans-Serif" font-weight="bold" font-size="12.00">text</text>
<text text-anchor="start" x="7.24" y="-109.04" font-family="Helvetica,sans-Serif" font-size="12.00">value </text>
<text text-anchor="start" x="40.24" y="-109.04" font-family="Helvetica,sans-Serif" font-weight="bold" font-size="12.00">real</text>
<text text-anchor="start" x="7.24" y="-92.04" font-family="Helvetica,sans-Serif" font-size="12.00">categoryId </text>
<text text-anchor="start" x="66.24" y="-92.04" font-family="Helvetica,sans-Serif" font-weight="bold" font-size="12.00">integer</text>
<text text-anchor="start" x="7.24" y="-75.04" font-family="Helvetica,sans-Serif" font-size="12.00">currencyId </text>
<text text-anchor="start" x="66.24" y="-75.04" font-family="Helvetica,sans-Serif" font-weight="bold" font-size="12.00">integer</text>
<text text-anchor="start" x="7.24" y="-58.04" font-family="Helvetica,sans-Serif" font-size="12.00">typeId </text>
<text text-anchor="start" x="43.24" y="-58.04" font-family="Helvetica,sans-Serif" font-weight="bold" font-size="12.00">integer</text>
<text text-anchor="start" x="7.24" y="-41.04" font-family="Helvetica,sans-Serif" font-size="12.00">priorityId </text>
<text text-anchor="start" x="56.24" y="-41.04" font-family="Helvetica,sans-Serif" font-weight="bold" font-size="12.00">integer</text>
<text text-anchor="start" x="7.24" y="-24.04" font-family="Helvetica,sans-Serif" font-size="12.00">date </text>
<text text-anchor="start" x="34.24" y="-24.04" font-family="Helvetica,sans-Serif" font-weight="bold" font-size="12.00">text</text>
</g>
<!-- category -->
<g id="node2" class="node">
<title>category</title>
<path fill="none" stroke="black" d="M222.24,-238.64C222.24,-238.64 342.24,-238.64 342.24,-238.64 348.24,-238.64 354.24,-244.64 354.24,-250.64 354.24,-250.64 354.24,-296.64 354.24,-296.64 354.24,-302.64 348.24,-308.64 342.24,-308.64 342.24,-308.64 222.24,-308.64 222.24,-308.64 216.24,-308.64 210.24,-302.64 210.24,-296.64 210.24,-296.64 210.24,-250.64 210.24,-250.64 210.24,-244.64 216.24,-238.64 222.24,-238.64"/>
<text text-anchor="start" x="254.24" y="-288.24" font-family="Helvetica,sans-Serif" font-weight="bold" font-size="13.00">category</text>
<polyline fill="none" stroke="black" points="210.24,-278.64 354.24,-278.64 "/>
<text text-anchor="start" x="217.24" y="-265.04" font-family="Helvetica,sans-Serif" font-size="12.00">id* </text>
<text text-anchor="start" x="235.24" y="-265.04" font-family="Helvetica,sans-Serif" font-weight="bold" font-size="12.00">integer</text>
<text text-anchor="start" x="217.24" y="-248.04" font-family="Helvetica,sans-Serif" font-size="12.00">name </text>
<text text-anchor="start" x="251.24" y="-248.04" font-family="Helvetica,sans-Serif" font-weight="bold" font-size="12.00">text</text>
</g>
<!-- priority -->
<g id="node3" class="node">
<title>priority</title>
<path fill="none" stroke="black" d="M180.24,-126.14C180.24,-126.14 300.24,-126.14 300.24,-126.14 306.24,-126.14 312.24,-132.14 312.24,-138.14 312.24,-138.14 312.24,-201.14 312.24,-201.14 312.24,-207.14 306.24,-213.14 300.24,-213.14 300.24,-213.14 180.24,-213.14 180.24,-213.14 174.24,-213.14 168.24,-207.14 168.24,-201.14 168.24,-201.14 168.24,-138.14 168.24,-138.14 168.24,-132.14 174.24,-126.14 180.24,-126.14"/>
<text text-anchor="start" x="217.24" y="-192.74" font-family="Helvetica,sans-Serif" font-weight="bold" font-size="13.00">priority</text>
<polyline fill="none" stroke="black" points="168.24,-183.14 312.24,-183.14 "/>
<text text-anchor="start" x="175.24" y="-169.04" font-family="Helvetica,sans-Serif" font-size="12.00">id* </text>
<text text-anchor="start" x="193.24" y="-169.04" font-family="Helvetica,sans-Serif" font-weight="bold" font-size="12.00">integer</text>
<text text-anchor="start" x="175.24" y="-152.04" font-family="Helvetica,sans-Serif" font-size="12.00">value </text>
<text text-anchor="start" x="208.24" y="-152.04" font-family="Helvetica,sans-Serif" font-weight="bold" font-size="12.00">integer</text>
<text text-anchor="start" x="175.24" y="-135.04" font-family="Helvetica,sans-Serif" font-size="12.00">name </text>
<text text-anchor="start" x="209.24" y="-135.04" font-family="Helvetica,sans-Serif" font-weight="bold" font-size="12.00">text</text>
</g>
<!-- type -->
<g id="node4" class="node">
<title>type</title>
<path fill="none" stroke="black" d="M12.24,-210.64C12.24,-210.64 132.24,-210.64 132.24,-210.64 138.24,-210.64 144.24,-216.64 144.24,-222.64 144.24,-222.64 144.24,-268.64 144.24,-268.64 144.24,-274.64 138.24,-280.64 132.24,-280.64 132.24,-280.64 12.24,-280.64 12.24,-280.64 6.24,-280.64 0.24,-274.64 0.24,-268.64 0.24,-268.64 0.24,-222.64 0.24,-222.64 0.24,-216.64 6.24,-210.64 12.24,-210.64"/>
<text text-anchor="start" x="58.24" y="-260.24" font-family="Helvetica,sans-Serif" font-weight="bold" font-size="13.00">type</text>
<polyline fill="none" stroke="black" points="0.24,-250.64 144.24,-250.64 "/>
<text text-anchor="start" x="7.24" y="-237.04" font-family="Helvetica,sans-Serif" font-size="12.00">id* </text>
<text text-anchor="start" x="25.24" y="-237.04" font-family="Helvetica,sans-Serif" font-weight="bold" font-size="12.00">integer</text>
<text text-anchor="start" x="7.24" y="-220.04" font-family="Helvetica,sans-Serif" font-size="12.00">name </text>
<text text-anchor="start" x="41.24" y="-220.04" font-family="Helvetica,sans-Serif" font-weight="bold" font-size="12.00">text</text>
</g>
<!-- currency -->
<g id="node5" class="node">
<title>currency</title>
<path fill="none" stroke="black" d="M180.24,-0.64C180.24,-0.64 300.24,-0.64 300.24,-0.64 306.24,-0.64 312.24,-6.64 312.24,-12.64 312.24,-12.64 312.24,-92.64 312.24,-92.64 312.24,-98.64 306.24,-104.64 300.24,-104.64 300.24,-104.64 180.24,-104.64 180.24,-104.64 174.24,-104.64 168.24,-98.64 168.24,-92.64 168.24,-92.64 168.24,-12.64 168.24,-12.64 168.24,-6.64 174.24,-0.64 180.24,-0.64"/>
<text text-anchor="start" x="211.24" y="-84.24" font-family="Helvetica,sans-Serif" font-weight="bold" font-size="13.00">currency</text>
<polyline fill="none" stroke="black" points="168.24,-74.64 312.24,-74.64 "/>
<text text-anchor="start" x="175.24" y="-61.04" font-family="Helvetica,sans-Serif" font-size="12.00">id* </text>
<text text-anchor="start" x="193.24" y="-61.04" font-family="Helvetica,sans-Serif" font-weight="bold" font-size="12.00">integer</text>
<text text-anchor="start" x="175.24" y="-44.04" font-family="Helvetica,sans-Serif" font-size="12.00">name </text>
<text text-anchor="start" x="209.24" y="-44.04" font-family="Helvetica,sans-Serif" font-weight="bold" font-size="12.00">text</text>
<text text-anchor="start" x="175.24" y="-27.04" font-family="Helvetica,sans-Serif" font-size="12.00">symbol </text>
<text text-anchor="start" x="217.24" y="-27.04" font-family="Helvetica,sans-Serif" font-weight="bold" font-size="12.00">text</text>
<text text-anchor="start" x="175.24" y="-10.04" font-family="Helvetica,sans-Serif" font-size="12.00">acronym </text>
<text text-anchor="start" x="224.24" y="-10.04" font-family="Helvetica,sans-Serif" font-weight="bold" font-size="12.00">text</text>
</g>
</g>
</svg>
